<svg xmlns:svg="http://www.w3.org/2000/svg" xmlns="http://www.w3.org/2000/svg" version="1.1" width="600" height="1111.11"><defs><clipPath><path d="M0 300 162 300 162 0 0 0 0 300z"/></clipPath></defs><g transform="translate(-307.32143,422.67596)"><g transform="matrix(3.7037037,0,0,-3.7037037,307.32143,688.43515)"><g clip-path="url(#clipPath3754)"><g transform="translate(0,148.8545)"><path d="m0 0 0.47 5.92-0.18 0 0.18 0.1 6.2 78.93c0 0 3.09-54.59 12.29-70.36 3.95 1.56 7.97 2.96 12.04 4.22 9.95 26.04 13.44 103.42 13.44 103.42 0 0 2.32-70.49 11.08-97.85 4.8 0.72 9.68 1.22 14.66 1.54 9.05 33.66 11.51 125.24 11.51 125.24 0 0 2.98-91.81 11.9-125.36 4.74-0.34 9.41-0.88 14-1.59 8.65 27.25 12.11 98.06 12.11 98.06 0 0 2.8-77.8 11.86-103.62 3.97-1.23 7.88-2.62 11.71-4.14 10.04 15.58 13.58 70.35 13.58 70.35l4.79-78.88 0.2-0.1-0.19 0L162 0C162 0 81.69-26.14 81.69-148.85 81.69-26.72 0 0 0 0" style="fill-opacity:1;fill-rule:nonzero;fill:#000"/></g></g></g></g></svg>
